<svg width="396" height="544" viewBox="0 0 396 544" fill="none" xmlns="http://www.w3.org/2000/svg">
<path d="M393.303 493.303C396.232 490.374 396.232 485.626 393.303 482.697L345.574 434.967C342.645 432.038 337.896 432.038 334.967 434.967C332.038 437.896 332.038 442.645 334.967 445.574L377.393 488L334.967 530.426C332.038 533.355 332.038 538.104 334.967 541.033C337.896 543.962 342.645 543.962 345.574 541.033L393.303 493.303ZM310.056 91.5747C310.056 95.7169 313.414 99.0747 317.556 99.0747C321.698 99.0747 325.056 95.7169 325.056 91.5747H310.056ZM13 15.5H267.556V0.5H13V15.5ZM388 480.5H58V495.5H388V480.5ZM15.5 438V13H0.5V438H15.5ZM325.056 91.5747V58H310.056V91.5747H325.056ZM58 480.5C34.5279 480.5 15.5 461.472 15.5 438H0.5C0.5 469.756 26.2436 495.5 58 495.5V480.5ZM267.556 15.5C291.028 15.5 310.056 34.5279 310.056 58H325.056C325.056 26.2436 299.312 0.5 267.556 0.5V15.5ZM13 0.5C6.09642 0.5 0.5 6.09647 0.5 13H15.5C15.5 14.3807 14.3807 15.5 13 15.5V0.5Z" fill="url(#paint0_linear_102_2)"/>
<defs>
<linearGradient id="paint0_linear_102_2" x1="388" y1="248" x2="8.00002" y2="247.999" gradientUnits="userSpaceOnUse">
<stop stop-color="#B4985E" stop-opacity="0.4"/>
<stop offset="0.375" stop-color="#B4985E"/>
<stop offset="1" stop-color="#B4985E"/>
<stop offset="1" stop-color="#B4985E"/>
</linearGradient>
</defs>
</svg>
