<svg width="65" height="42" viewBox="0 0 65 42" fill="none" xmlns="http://www.w3.org/2000/svg">
<g filter="url(#filter0_d_2753_9)">
<path d="M34.5938 5.08179L15.6376 17.327C12.1478 19.5813 6.48987 19.5813 3.00014 17.327V17.327L21.9563 5.08179C25.446 2.82751 31.104 2.82751 34.5938 5.08179V5.08179Z" fill="#B4985E" fill-opacity="0.5" shape-rendering="crispEdges"/>
<path d="M3.85484 17.3175L22.3763 5.35309C25.4929 3.33987 30.4619 3.2526 33.739 5.0913L15.2176 17.0557C12.101 19.0689 7.132 19.1562 3.85484 17.3175Z" stroke="#B4985E" shape-rendering="crispEdges"/>
</g>
<g filter="url(#filter1_d_2753_9)">
<path fill-rule="evenodd" clip-rule="evenodd" d="M25.0632 18.0872L57.2857 18.0872C60.4416 18.0872 63 20.6455 63 23.8014V23.8014L25.0632 23.8014C22.9873 21.8738 21.8969 21.3017 20.0527 20.9443C21.9562 20.5672 23.069 19.9427 25.0632 18.0872Z" fill="white" fill-opacity="0.5" shape-rendering="crispEdges"/>
<path d="M22.7711 20.5048C22.472 20.6748 22.1751 20.8181 21.8707 20.9411C22.154 21.0554 22.433 21.189 22.7161 21.3481C23.4918 21.7842 24.2783 22.4009 25.2588 23.3014L62.4763 23.3014C62.2247 20.6562 59.9968 18.5872 57.2857 18.5872L25.259 18.5872C24.3181 19.4531 23.547 20.0636 22.7711 20.5048Z" stroke="white" shape-rendering="crispEdges"/>
</g>
<g filter="url(#filter2_d_2753_9)">
<path fill-rule="evenodd" clip-rule="evenodd" d="M63 18.087C63 21.2429 60.4416 23.8013 57.2857 23.8013L25.0632 23.8013C23.069 21.9457 21.9562 21.3213 20.0527 20.9441C21.8503 20.5721 22.9594 19.9028 25.0632 18.087L63 18.087V18.087Z" fill="white" fill-opacity="0.5" shape-rendering="crispEdges"/>
<path d="M62.4763 18.587C62.2247 21.2322 59.9968 23.3013 57.2857 23.3013L25.259 23.3013C24.3181 22.4354 23.547 21.8248 22.7711 21.3836C22.4554 21.2041 22.142 21.0544 21.8198 20.927C22.889 20.4729 23.872 19.7664 25.2486 18.587L62.4763 18.587Z" stroke="white" shape-rendering="crispEdges"/>
</g>
<g filter="url(#filter3_d_2753_9)">
<path d="M34.5936 36.9183C31.1039 39.1725 25.4459 39.1725 21.9562 36.9183L3.00001 24.6731V24.6731C6.48974 22.4188 12.1477 22.4188 15.6375 24.6731L34.5936 36.9183V36.9183Z" fill="#B4985E" fill-opacity="0.5" shape-rendering="crispEdges"/>
<path d="M22.3762 36.647L3.85472 24.6826C7.13188 22.8439 12.1009 22.9312 15.2175 24.9444L33.7389 36.9088C30.4618 38.7474 25.4927 38.6602 22.3762 36.647Z" stroke="#B4985E" shape-rendering="crispEdges"/>
</g>
<defs>
<filter id="filter0_d_2753_9" x="0.000244141" y="0.391113" width="37.5935" height="21.6265" filterUnits="userSpaceOnUse" color-interpolation-filters="sRGB">
<feFlood flood-opacity="0" result="BackgroundImageFix"/>
<feColorMatrix in="SourceAlpha" type="matrix" values="0 0 0 0 0 0 0 0 0 0 0 0 0 0 0 0 0 0 127 0" result="hardAlpha"/>
<feMorphology radius="1" operator="dilate" in="SourceAlpha" result="effect1_dropShadow_2753_9"/>
<feOffset/>
<feGaussianBlur stdDeviation="1"/>
<feComposite in2="hardAlpha" operator="out"/>
<feColorMatrix type="matrix" values="0 0 0 0 0.141176 0 0 0 0 0.117647 0 0 0 0 0.0745098 0 0 0 0.5 0"/>
<feBlend mode="normal" in2="BackgroundImageFix" result="effect1_dropShadow_2753_9"/>
<feBlend mode="normal" in="SourceGraphic" in2="effect1_dropShadow_2753_9" result="shape"/>
</filter>
<filter id="filter1_d_2753_9" x="18.0527" y="16.0872" width="46.9473" height="9.71436" filterUnits="userSpaceOnUse" color-interpolation-filters="sRGB">
<feFlood flood-opacity="0" result="BackgroundImageFix"/>
<feColorMatrix in="SourceAlpha" type="matrix" values="0 0 0 0 0 0 0 0 0 0 0 0 0 0 0 0 0 0 127 0" result="hardAlpha"/>
<feOffset/>
<feGaussianBlur stdDeviation="1"/>
<feComposite in2="hardAlpha" operator="out"/>
<feColorMatrix type="matrix" values="0 0 0 0 1 0 0 0 0 1 0 0 0 0 1 0 0 0 0.5 0"/>
<feBlend mode="normal" in2="BackgroundImageFix" result="effect1_dropShadow_2753_9"/>
<feBlend mode="normal" in="SourceGraphic" in2="effect1_dropShadow_2753_9" result="shape"/>
</filter>
<filter id="filter2_d_2753_9" x="18.0527" y="16.0869" width="46.9473" height="9.71436" filterUnits="userSpaceOnUse" color-interpolation-filters="sRGB">
<feFlood flood-opacity="0" result="BackgroundImageFix"/>
<feColorMatrix in="SourceAlpha" type="matrix" values="0 0 0 0 0 0 0 0 0 0 0 0 0 0 0 0 0 0 127 0" result="hardAlpha"/>
<feOffset/>
<feGaussianBlur stdDeviation="1"/>
<feComposite in2="hardAlpha" operator="out"/>
<feColorMatrix type="matrix" values="0 0 0 0 1 0 0 0 0 1 0 0 0 0 1 0 0 0 0.5 0"/>
<feBlend mode="normal" in2="BackgroundImageFix" result="effect1_dropShadow_2753_9"/>
<feBlend mode="normal" in="SourceGraphic" in2="effect1_dropShadow_2753_9" result="shape"/>
</filter>
<filter id="filter3_d_2753_9" x="0" y="19.9824" width="37.5935" height="21.6265" filterUnits="userSpaceOnUse" color-interpolation-filters="sRGB">
<feFlood flood-opacity="0" result="BackgroundImageFix"/>
<feColorMatrix in="SourceAlpha" type="matrix" values="0 0 0 0 0 0 0 0 0 0 0 0 0 0 0 0 0 0 127 0" result="hardAlpha"/>
<feMorphology radius="1" operator="dilate" in="SourceAlpha" result="effect1_dropShadow_2753_9"/>
<feOffset/>
<feGaussianBlur stdDeviation="1"/>
<feComposite in2="hardAlpha" operator="out"/>
<feColorMatrix type="matrix" values="0 0 0 0 0.141176 0 0 0 0 0.117647 0 0 0 0 0.0745098 0 0 0 0.5 0"/>
<feBlend mode="normal" in2="BackgroundImageFix" result="effect1_dropShadow_2753_9"/>
<feBlend mode="normal" in="SourceGraphic" in2="effect1_dropShadow_2753_9" result="shape"/>
</filter>
</defs>
</svg>
