<svg width="41" height="28" viewBox="0 0 41 28" fill="none" xmlns="http://www.w3.org/2000/svg">
<mask id="path-1-inside-1_60_1289" fill="white">
<path d="M0.698242 24.541V18.4619C0.698242 18.335 0.742188 18.2259 0.830078 18.1348C0.917969 18.0436 1.02539 17.998 1.15234 17.998H4.87793C6.84733 17.998 7.83203 18.9062 7.83203 20.7227C7.83203 22.5358 6.84733 23.4424 4.87793 23.4424H2.53906V24.541C2.53906 24.668 2.49349 24.777 2.40234 24.8682C2.31445 24.9561 2.20703 25 2.08008 25H1.16211C1.03516 25 0.926107 24.9561 0.834961 24.8682C0.743815 24.777 0.698242 24.668 0.698242 24.541ZM2.53906 22.0605H4.32129C4.86816 22.0605 5.2832 21.9694 5.56641 21.7871C5.84961 21.6016 5.99121 21.2467 5.99121 20.7227C5.99121 20.1953 5.84961 19.8405 5.56641 19.6582C5.2832 19.4727 4.86816 19.3799 4.32129 19.3799H2.53906V22.0605ZM8.93535 24.5508V18.4619C8.93535 18.3285 8.9793 18.2178 9.06719 18.1299C9.15508 18.042 9.26576 17.998 9.39922 17.998H14.8973C15.0242 17.998 15.1316 18.0436 15.2195 18.1348C15.3107 18.2259 15.3562 18.335 15.3562 18.4619V18.9209C15.3562 19.0479 15.3123 19.1569 15.2244 19.248C15.1398 19.3359 15.034 19.3799 14.907 19.3799H10.7762V20.5615H13.1883C13.9793 20.5615 14.6206 20.7487 15.1121 21.123C15.6036 21.4941 15.8494 22.0475 15.8494 22.7832C15.8494 23.5156 15.6036 24.069 15.1121 24.4434C14.6206 24.8145 13.9793 25 13.1883 25H9.3748C9.25111 25 9.14694 24.9577 9.0623 24.873C8.97767 24.7852 8.93535 24.6777 8.93535 24.5508ZM10.7762 23.6182H13.1883C13.7352 23.6182 14.0086 23.3382 14.0086 22.7783C14.0086 22.2184 13.7352 21.9385 13.1883 21.9385H10.7762V23.6182ZM17.5484 24.1748C16.9462 23.5986 16.6451 22.7083 16.6451 21.5039C16.6451 20.2962 16.9462 19.4043 17.5484 18.8281C18.1539 18.2487 19.0605 17.959 20.2682 17.959H21.357C22.096 17.959 22.7486 18.151 23.315 18.5352C23.8847 18.9193 24.1695 19.445 24.1695 20.1123C24.1695 20.3044 24.1126 20.4427 23.9986 20.5273C23.8847 20.6087 23.774 20.6494 23.6666 20.6494H23.0855C22.7861 20.6494 22.5533 20.4704 22.3873 20.1123C22.1464 19.598 21.746 19.3408 21.1861 19.3408H20.317C19.6041 19.3408 19.1207 19.4938 18.8668 19.7998C18.6129 20.1058 18.4859 20.6722 18.4859 21.499C18.4859 22.3258 18.6129 22.8939 18.8668 23.2031C19.1207 23.5091 19.6041 23.6621 20.317 23.6621H21.2887C21.8486 23.6621 22.2473 23.4049 22.485 22.8906C22.651 22.5293 22.8854 22.3486 23.1881 22.3486H23.7691C23.9221 22.3486 24.0426 22.4056 24.1305 22.5195C24.2216 22.6335 24.2672 22.7572 24.2672 22.8906C24.2672 23.5579 23.984 24.0837 23.4176 24.4678C22.8512 24.8486 22.1985 25.0391 21.4596 25.0391H20.2682C19.0605 25.0391 18.1539 24.751 17.5484 24.1748Z"/>
</mask>
<path d="M0.698242 24.541V18.4619C0.698242 18.335 0.742188 18.2259 0.830078 18.1348C0.917969 18.0436 1.02539 17.998 1.15234 17.998H4.87793C6.84733 17.998 7.83203 18.9062 7.83203 20.7227C7.83203 22.5358 6.84733 23.4424 4.87793 23.4424H2.53906V24.541C2.53906 24.668 2.49349 24.777 2.40234 24.8682C2.31445 24.9561 2.20703 25 2.08008 25H1.16211C1.03516 25 0.926107 24.9561 0.834961 24.8682C0.743815 24.777 0.698242 24.668 0.698242 24.541ZM2.53906 22.0605H4.32129C4.86816 22.0605 5.2832 21.9694 5.56641 21.7871C5.84961 21.6016 5.99121 21.2467 5.99121 20.7227C5.99121 20.1953 5.84961 19.8405 5.56641 19.6582C5.2832 19.4727 4.86816 19.3799 4.32129 19.3799H2.53906V22.0605ZM8.93535 24.5508V18.4619C8.93535 18.3285 8.9793 18.2178 9.06719 18.1299C9.15508 18.042 9.26576 17.998 9.39922 17.998H14.8973C15.0242 17.998 15.1316 18.0436 15.2195 18.1348C15.3107 18.2259 15.3562 18.335 15.3562 18.4619V18.9209C15.3562 19.0479 15.3123 19.1569 15.2244 19.248C15.1398 19.3359 15.034 19.3799 14.907 19.3799H10.7762V20.5615H13.1883C13.9793 20.5615 14.6206 20.7487 15.1121 21.123C15.6036 21.4941 15.8494 22.0475 15.8494 22.7832C15.8494 23.5156 15.6036 24.069 15.1121 24.4434C14.6206 24.8145 13.9793 25 13.1883 25H9.3748C9.25111 25 9.14694 24.9577 9.0623 24.873C8.97767 24.7852 8.93535 24.6777 8.93535 24.5508ZM10.7762 23.6182H13.1883C13.7352 23.6182 14.0086 23.3382 14.0086 22.7783C14.0086 22.2184 13.7352 21.9385 13.1883 21.9385H10.7762V23.6182ZM17.5484 24.1748C16.9462 23.5986 16.6451 22.7083 16.6451 21.5039C16.6451 20.2962 16.9462 19.4043 17.5484 18.8281C18.1539 18.2487 19.0605 17.959 20.2682 17.959H21.357C22.096 17.959 22.7486 18.151 23.315 18.5352C23.8847 18.9193 24.1695 19.445 24.1695 20.1123C24.1695 20.3044 24.1126 20.4427 23.9986 20.5273C23.8847 20.6087 23.774 20.6494 23.6666 20.6494H23.0855C22.7861 20.6494 22.5533 20.4704 22.3873 20.1123C22.1464 19.598 21.746 19.3408 21.1861 19.3408H20.317C19.6041 19.3408 19.1207 19.4938 18.8668 19.7998C18.6129 20.1058 18.4859 20.6722 18.4859 21.499C18.4859 22.3258 18.6129 22.8939 18.8668 23.2031C19.1207 23.5091 19.6041 23.6621 20.317 23.6621H21.2887C21.8486 23.6621 22.2473 23.4049 22.485 22.8906C22.651 22.5293 22.8854 22.3486 23.1881 22.3486H23.7691C23.9221 22.3486 24.0426 22.4056 24.1305 22.5195C24.2216 22.6335 24.2672 22.7572 24.2672 22.8906C24.2672 23.5579 23.984 24.0837 23.4176 24.4678C22.8512 24.8486 22.1985 25.0391 21.4596 25.0391H20.2682C19.0605 25.0391 18.1539 24.751 17.5484 24.1748Z" fill="url(#paint0_linear_60_1289)"/>
<path d="M2.53906 23.4424V23.3424H2.43906V23.4424H2.53906ZM2.40234 24.8682L2.33163 24.7975L2.40234 24.8682ZM0.834961 24.8682L0.764239 24.9389L0.765547 24.9401L0.834961 24.8682ZM2.53906 22.0605H2.43906V22.1605H2.53906V22.0605ZM5.56641 21.7871L5.62053 21.8712L5.62121 21.8708L5.56641 21.7871ZM5.56641 19.6582L5.5116 19.7419L5.51228 19.7423L5.56641 19.6582ZM2.53906 19.3799V19.2799H2.43906V19.3799H2.53906ZM0.798242 24.541V18.4619H0.598242V24.541H0.798242ZM0.798242 18.4619C0.798242 18.3608 0.832198 18.2766 0.902063 18.2042L0.758094 18.0654C0.652177 18.1752 0.598242 18.3091 0.598242 18.4619H0.798242ZM0.902063 18.2042C0.97105 18.1326 1.05246 18.098 1.15234 18.098V17.898C0.99832 17.898 0.864888 17.9546 0.758094 18.0654L0.902063 18.2042ZM1.15234 18.098H4.87793V17.898H1.15234V18.098ZM4.87793 18.098C5.84913 18.098 6.55889 18.3222 7.02571 18.7527C7.491 19.1819 7.73203 19.832 7.73203 20.7227H7.93203C7.93203 19.7969 7.68071 19.0848 7.1613 18.6057C6.64342 18.128 5.87613 17.898 4.87793 17.898V18.098ZM7.73203 20.7227C7.73203 21.6116 7.49103 22.2605 7.02577 22.6889C6.55896 23.1187 5.84917 23.3424 4.87793 23.3424V23.5424C5.87609 23.5424 6.64335 23.3128 7.16124 22.836C7.68068 22.3578 7.93203 21.6469 7.93203 20.7227H7.73203ZM4.87793 23.3424H2.53906V23.5424H4.87793V23.3424ZM2.43906 23.4424V24.541H2.63906V23.4424H2.43906ZM2.43906 24.541C2.43906 24.641 2.40435 24.7247 2.33163 24.7975L2.47305 24.9389C2.58263 24.8293 2.63906 24.6949 2.63906 24.541H2.43906ZM2.33163 24.7975C2.26294 24.8661 2.18115 24.9 2.08008 24.9V25.1C2.23292 25.1 2.36597 25.046 2.47305 24.9389L2.33163 24.7975ZM2.08008 24.9H1.16211V25.1H2.08008V24.9ZM1.16211 24.9C1.06097 24.9 0.976827 24.866 0.904374 24.7962L0.765547 24.9401C0.875387 25.0461 1.00934 25.1 1.16211 25.1V24.9ZM0.905672 24.7975C0.832957 24.7247 0.798242 24.641 0.798242 24.541H0.598242C0.598242 24.6949 0.654674 24.8293 0.76425 24.9389L0.905672 24.7975ZM2.53906 22.1605H4.32129V21.9605H2.53906V22.1605ZM4.32129 22.1605C4.87652 22.1605 5.31401 22.0685 5.62053 21.8712L5.51228 21.703C5.2524 21.8703 4.85981 21.9605 4.32129 21.9605V22.1605ZM5.62121 21.8708C5.94568 21.6582 6.09121 21.2611 6.09121 20.7227H5.89121C5.89121 21.2324 5.75354 21.545 5.5116 21.7035L5.62121 21.8708ZM6.09121 20.7227C6.09121 20.1814 5.94591 19.7836 5.62053 19.5741L5.51228 19.7423C5.75331 19.8974 5.89121 20.2092 5.89121 20.7227H6.09121ZM5.62121 19.5746C5.31453 19.3736 4.87675 19.2799 4.32129 19.2799V19.4799C4.85958 19.4799 5.25188 19.5717 5.5116 19.7418L5.62121 19.5746ZM4.32129 19.2799H2.53906V19.4799H4.32129V19.2799ZM2.43906 19.3799V22.0605H2.63906V19.3799H2.43906ZM15.2195 18.1348L15.1475 18.2042L15.1488 18.2055L15.2195 18.1348ZM15.2244 19.248L15.1524 19.1786L15.1524 19.1787L15.2244 19.248ZM10.7762 19.3799V19.2799H10.6762V19.3799H10.7762ZM10.7762 20.5615H10.6762V20.6615H10.7762V20.5615ZM15.1121 21.123L15.0515 21.2026L15.0519 21.2029L15.1121 21.123ZM15.1121 24.4434L15.1724 24.5232L15.1727 24.5229L15.1121 24.4434ZM9.0623 24.873L8.99026 24.9424L8.99159 24.9438L9.0623 24.873ZM10.7762 23.6182H10.6762V23.7182H10.7762V23.6182ZM10.7762 21.9385V21.8385H10.6762V21.9385H10.7762ZM9.03535 24.5508V18.4619H8.83535V24.5508H9.03535ZM9.03535 18.4619C9.03535 18.3528 9.07024 18.2683 9.1379 18.2006L8.99648 18.0592C8.88836 18.1673 8.83535 18.3041 8.83535 18.4619H9.03535ZM9.1379 18.2006C9.20556 18.1329 9.29011 18.098 9.39922 18.098V17.898C9.2414 17.898 9.1046 17.9511 8.99648 18.0592L9.1379 18.2006ZM9.39922 18.098H14.8973V17.898H9.39922V18.098ZM14.8973 18.098C14.9971 18.098 15.0786 18.1326 15.1475 18.2042L15.2915 18.0654C15.1847 17.9546 15.0513 17.898 14.8973 17.898V18.098ZM15.1488 18.2055C15.2215 18.2782 15.2562 18.3619 15.2562 18.4619H15.4563C15.4563 18.308 15.3998 18.1736 15.2902 18.0641L15.1488 18.2055ZM15.2562 18.4619V18.9209H15.4563V18.4619H15.2562ZM15.2562 18.9209C15.2562 19.022 15.2223 19.1062 15.1524 19.1786L15.2964 19.3175C15.4023 19.2076 15.4563 19.0737 15.4563 18.9209H15.2562ZM15.1524 19.1787C15.0874 19.2461 15.008 19.2799 14.907 19.2799V19.4799C15.0599 19.4799 15.1921 19.4257 15.2964 19.3174L15.1524 19.1787ZM14.907 19.2799H10.7762V19.4799H14.907V19.2799ZM10.6762 19.3799V20.5615H10.8762V19.3799H10.6762ZM10.7762 20.6615H13.1883V20.4615H10.7762V20.6615ZM13.1883 20.6615C13.9636 20.6615 14.5818 20.8448 15.0515 21.2026L15.1727 21.0435C14.6594 20.6526 13.995 20.4615 13.1883 20.4615V20.6615ZM15.0519 21.2029C15.5134 21.5513 15.7494 22.072 15.7494 22.7832H15.9494C15.9494 22.023 15.6939 21.437 15.1724 21.0432L15.0519 21.2029ZM15.7494 22.7832C15.7494 23.4909 15.5135 24.012 15.0515 24.3638L15.1727 24.5229C15.6938 24.126 15.9494 23.5403 15.9494 22.7832H15.7494ZM15.0519 24.3636C14.5821 24.7182 13.9638 24.9 13.1883 24.9V25.1C13.9948 25.1 14.6591 24.9107 15.1724 24.5232L15.0519 24.3636ZM13.1883 24.9H9.3748V25.1H13.1883V24.9ZM9.3748 24.9C9.27664 24.9 9.19821 24.8675 9.13302 24.8023L8.99159 24.9438C9.09567 25.0478 9.22558 25.1 9.3748 25.1V24.9ZM9.13434 24.8037C9.06843 24.7352 9.03535 24.653 9.03535 24.5508H8.83535C8.83535 24.7024 8.8869 24.8351 8.99027 24.9424L9.13434 24.8037ZM10.7762 23.7182H13.1883V23.5182H10.7762V23.7182ZM13.1883 23.7182C13.4777 23.7182 13.7131 23.6439 13.8751 23.4781C14.0366 23.3127 14.1086 23.0731 14.1086 22.7783H13.9086C13.9086 23.0434 13.8438 23.2238 13.732 23.3383C13.6205 23.4524 13.4457 23.5182 13.1883 23.5182V23.7182ZM14.1086 22.7783C14.1086 22.4835 14.0366 22.244 13.8751 22.0786C13.7131 21.9127 13.4777 21.8385 13.1883 21.8385V22.0385C13.4457 22.0385 13.6205 22.1042 13.732 22.2183C13.8438 22.3328 13.9086 22.5132 13.9086 22.7783H14.1086ZM13.1883 21.8385H10.7762V22.0385H13.1883V21.8385ZM10.6762 21.9385V23.6182H10.8762V21.9385H10.6762ZM17.5484 24.1748L17.4793 24.2471L17.4795 24.2472L17.5484 24.1748ZM17.5484 18.8281L17.6176 18.9004L17.6176 18.9004L17.5484 18.8281ZM23.315 18.5352L23.2589 18.6179L23.2591 18.6181L23.315 18.5352ZM23.9986 20.5273L24.0568 20.6087L24.0583 20.6076L23.9986 20.5273ZM22.3873 20.1123L22.478 20.0702L22.4779 20.0699L22.3873 20.1123ZM18.8668 19.7998L18.9438 19.8637L18.8668 19.7998ZM18.8668 23.2031L18.7895 23.2666L18.7898 23.267L18.8668 23.2031ZM22.485 22.8906L22.5757 22.9326L22.5758 22.9324L22.485 22.8906ZM24.1305 22.5195L24.0513 22.5806L24.0524 22.582L24.1305 22.5195ZM23.4176 24.4678L23.4734 24.5508L23.4737 24.5505L23.4176 24.4678ZM17.6176 24.1025C17.0425 23.5523 16.7451 22.6933 16.7451 21.5039H16.5451C16.5451 22.7234 16.85 23.645 17.4793 24.2471L17.6176 24.1025ZM16.7451 21.5039C16.7451 20.3112 17.0425 19.4506 17.6176 18.9004L17.4793 18.7559C16.8499 19.358 16.5451 20.2813 16.5451 21.5039H16.7451ZM17.6176 18.9004C18.1976 18.3453 19.0749 18.059 20.2682 18.059V17.859C19.0461 17.859 18.1102 18.1521 17.4793 18.7559L17.6176 18.9004ZM20.2682 18.059H21.357V17.859H20.2682V18.059ZM21.357 18.059C22.0776 18.059 22.7104 18.2459 23.2589 18.6179L23.3712 18.4524C22.7869 18.0561 22.1143 17.859 21.357 17.859V18.059ZM23.2591 18.6181C23.8022 18.9843 24.0695 19.4794 24.0695 20.1123H24.2695C24.2695 19.4106 23.9672 18.8543 23.3709 18.4522L23.2591 18.6181ZM24.0695 20.1123C24.0695 20.2848 24.0192 20.3875 23.939 20.4471L24.0583 20.6076C24.2059 20.4979 24.2695 20.3239 24.2695 20.1123H24.0695ZM23.9405 20.446C23.8384 20.5189 23.7477 20.5494 23.6666 20.5494V20.7494C23.8004 20.7494 23.931 20.6986 24.0568 20.6087L23.9405 20.446ZM23.6666 20.5494H23.0855V20.7494H23.6666V20.5494ZM23.0855 20.5494C22.8379 20.5494 22.6339 20.4064 22.478 20.0702L22.2966 20.1544C22.4728 20.5344 22.7343 20.7494 23.0855 20.7494V20.5494ZM22.4779 20.0699C22.351 19.799 22.1793 19.5901 21.9604 19.4496C21.7414 19.3089 21.4818 19.2408 21.1861 19.2408V19.4408C21.4504 19.4408 21.6709 19.5013 21.8523 19.6178C22.0338 19.7344 22.1827 19.9113 22.2967 20.1547L22.4779 20.0699ZM21.1861 19.2408H20.317V19.4408H21.1861V19.2408ZM20.317 19.2408C19.5966 19.2408 19.0734 19.3942 18.7898 19.7359L18.9438 19.8637C19.168 19.5934 19.6116 19.4408 20.317 19.4408V19.2408ZM18.7898 19.7359C18.5117 20.0712 18.3859 20.6698 18.3859 21.499H18.5859C18.5859 20.6746 18.7141 20.1404 18.9438 19.8637L18.7898 19.7359ZM18.3859 21.499C18.3859 22.3285 18.5117 22.9283 18.7895 23.2666L18.9441 23.1397C18.714 22.8595 18.5859 22.3232 18.5859 21.499H18.3859ZM18.7898 23.267C19.0734 23.6087 19.5966 23.7621 20.317 23.7621V23.5621C19.6116 23.5621 19.168 23.4095 18.9438 23.1393L18.7898 23.267ZM20.317 23.7621H21.2887V23.5621H20.317V23.7621ZM21.2887 23.7621C21.5843 23.7621 21.8436 23.694 22.0619 23.5533C22.28 23.4126 22.4505 23.2036 22.5757 22.9326L22.3942 22.8487C22.2818 23.092 22.134 23.2687 21.9535 23.3852C21.773 23.5016 21.5529 23.5621 21.2887 23.5621V23.7621ZM22.5758 22.9324C22.7316 22.5932 22.9372 22.4486 23.1881 22.4486V22.2486C22.8335 22.2486 22.5703 22.4653 22.3941 22.8489L22.5758 22.9324ZM23.1881 22.4486H23.7691V22.2486H23.1881V22.4486ZM23.7691 22.4486C23.8934 22.4486 23.9837 22.493 24.0513 22.5806L24.2096 22.4585C24.1015 22.3182 23.9509 22.2486 23.7691 22.2486V22.4486ZM24.0524 22.582C24.1308 22.68 24.1672 22.782 24.1672 22.8906H24.3672C24.3672 22.7323 24.3125 22.587 24.2086 22.4571L24.0524 22.582ZM24.1672 22.8906C24.1672 23.5238 23.9013 24.0189 23.3615 24.385L23.4737 24.5505C24.0667 24.1484 24.3672 23.5921 24.3672 22.8906H24.1672ZM23.3618 24.3848C22.8132 24.7536 22.1803 24.9391 21.4596 24.9391V25.1391C22.2167 25.1391 22.8891 24.9436 23.4734 24.5508L23.3618 24.3848ZM21.4596 24.9391H20.2682V25.1391H21.4596V24.9391ZM20.2682 24.9391C19.0748 24.9391 18.1974 24.6543 17.6174 24.1024L17.4795 24.2472C18.1104 24.8476 19.0462 25.1391 20.2682 25.1391V24.9391Z" fill="white" mask="url(#path-1-inside-1_60_1289)"/>
<mask id="path-3-inside-2_60_1289" fill="white">
<path d="M24.7333 20.8193V20.4707C24.7333 20.418 24.7499 20.375 24.7831 20.3418C24.8183 20.3066 24.8622 20.2891 24.915 20.2891H27.8007C27.8535 20.2891 27.8964 20.3066 27.9296 20.3418C27.9628 20.375 27.9794 20.418 27.9794 20.4707V20.8193C27.9794 20.8701 27.9628 20.9131 27.9296 20.9482C27.8964 20.9814 27.8535 20.998 27.8007 20.998H26.8661V23.3213C26.8661 23.3721 26.8486 23.415 26.8134 23.4502C26.7802 23.4834 26.7372 23.5 26.6845 23.5H26.0312C25.9785 23.5 25.9345 23.4834 25.8994 23.4502C25.8661 23.415 25.8495 23.3721 25.8495 23.3213V20.998H24.915C24.8622 20.998 24.8183 20.9814 24.7831 20.9482C24.7499 20.9131 24.7333 20.8701 24.7333 20.8193ZM28.5842 24.3086V20.4707C28.5842 20.418 28.6008 20.375 28.634 20.3418C28.6692 20.3066 28.7122 20.2891 28.7629 20.2891H29.3284C29.3792 20.2891 29.4211 20.3066 29.4544 20.3418C29.4895 20.375 29.5071 20.418 29.5071 20.4707V20.5586C29.8157 20.3398 30.1741 20.2305 30.5823 20.2305C30.9905 20.2305 31.3313 20.375 31.6047 20.6641C31.8782 20.9512 32.0149 21.3633 32.0149 21.9004C32.0149 22.4355 31.8733 22.8457 31.5901 23.1309C31.3069 23.416 30.9251 23.5586 30.4446 23.5586C30.1965 23.5586 29.9143 23.5088 29.5979 23.4092V24.3086C29.5979 24.3613 29.5803 24.4043 29.5452 24.4375C29.512 24.4727 29.47 24.4902 29.4192 24.4902H28.7629C28.7122 24.4902 28.6692 24.4727 28.634 24.4375C28.6008 24.4043 28.5842 24.3613 28.5842 24.3086ZM29.5979 22.7324C29.8499 22.8125 30.0618 22.8525 30.2336 22.8525C30.5012 22.8525 30.6907 22.7764 30.802 22.624C30.9153 22.4717 30.9719 22.2285 30.9719 21.8945C30.9719 21.5605 30.9182 21.3184 30.8108 21.168C30.7053 21.0156 30.5461 20.9395 30.3333 20.9395C30.1223 20.9395 29.8772 21.0273 29.5979 21.2031V22.7324ZM33.0123 23.1367C32.7076 22.8555 32.5553 22.4414 32.5553 21.8945C32.5553 21.3457 32.7076 20.9316 33.0123 20.6523C33.317 20.3711 33.7545 20.2305 34.3248 20.2305C34.897 20.2305 35.3355 20.3711 35.6402 20.6523C35.9449 20.9316 36.0972 21.3457 36.0972 21.8945C36.0972 22.4414 35.9449 22.8555 35.6402 23.1367C35.3355 23.418 34.897 23.5586 34.3248 23.5586C33.7545 23.5586 33.317 23.418 33.0123 23.1367ZM33.7535 21.1328C33.6324 21.291 33.5719 21.5439 33.5719 21.8916C33.5719 22.2393 33.6324 22.4932 33.7535 22.6533C33.8746 22.8135 34.065 22.8936 34.3248 22.8936C34.5865 22.8936 34.7779 22.8135 34.899 22.6533C35.022 22.4932 35.0836 22.2393 35.0836 21.8916C35.0836 21.5439 35.022 21.291 34.899 21.1328C34.7779 20.9746 34.5865 20.8955 34.3248 20.8955C34.065 20.8955 33.8746 20.9746 33.7535 21.1328ZM36.8192 23.3213V20.4707C36.8192 20.418 36.8358 20.375 36.869 20.3418C36.9042 20.3066 36.9472 20.2891 36.9979 20.2891H37.6103C37.663 20.2891 37.706 20.3066 37.7392 20.3418C37.7743 20.375 37.7919 20.418 37.7919 20.4707V22.3955L38.8231 20.5C38.8544 20.4395 38.9022 20.3896 38.9667 20.3506C39.0311 20.3096 39.0936 20.2891 39.1542 20.2891H39.9745C40.0272 20.2891 40.0702 20.3066 40.1034 20.3418C40.1386 20.375 40.1561 20.418 40.1561 20.4707V23.3213C40.1561 23.374 40.1386 23.417 40.1034 23.4502C40.0702 23.4834 40.0272 23.5 39.9745 23.5H39.3622C39.3095 23.5 39.2665 23.4834 39.2333 23.4502C39.2001 23.415 39.1835 23.3721 39.1835 23.3213V21.3994L38.1522 23.2891C38.121 23.3457 38.0731 23.3955 38.0087 23.4385C37.9442 23.4795 37.8817 23.5 37.8212 23.5H36.9979C36.9452 23.5 36.9022 23.4834 36.869 23.4502C36.8358 23.417 36.8192 23.374 36.8192 23.3213ZM37.5019 19.1787C37.5019 19.0791 37.5565 19.0293 37.6659 19.0293H37.8856C37.9813 19.0293 38.0497 19.0791 38.0907 19.1787C38.1552 19.3389 38.287 19.4189 38.4862 19.4189C38.6874 19.4189 38.8192 19.3389 38.8817 19.1787C38.9208 19.0791 38.9892 19.0293 39.0868 19.0293H39.3095C39.4169 19.0293 39.4706 19.0791 39.4706 19.1787C39.4706 19.4072 39.3798 19.5947 39.1981 19.7412C39.0165 19.8877 38.7792 19.9609 38.4862 19.9609C38.1952 19.9609 37.9579 19.8877 37.7743 19.7412C37.5927 19.5947 37.5019 19.4072 37.5019 19.1787Z"/>
</mask>
<path d="M24.7333 20.8193V20.4707C24.7333 20.418 24.7499 20.375 24.7831 20.3418C24.8183 20.3066 24.8622 20.2891 24.915 20.2891H27.8007C27.8535 20.2891 27.8964 20.3066 27.9296 20.3418C27.9628 20.375 27.9794 20.418 27.9794 20.4707V20.8193C27.9794 20.8701 27.9628 20.9131 27.9296 20.9482C27.8964 20.9814 27.8535 20.998 27.8007 20.998H26.8661V23.3213C26.8661 23.3721 26.8486 23.415 26.8134 23.4502C26.7802 23.4834 26.7372 23.5 26.6845 23.5H26.0312C25.9785 23.5 25.9345 23.4834 25.8994 23.4502C25.8661 23.415 25.8495 23.3721 25.8495 23.3213V20.998H24.915C24.8622 20.998 24.8183 20.9814 24.7831 20.9482C24.7499 20.9131 24.7333 20.8701 24.7333 20.8193ZM28.5842 24.3086V20.4707C28.5842 20.418 28.6008 20.375 28.634 20.3418C28.6692 20.3066 28.7122 20.2891 28.7629 20.2891H29.3284C29.3792 20.2891 29.4211 20.3066 29.4544 20.3418C29.4895 20.375 29.5071 20.418 29.5071 20.4707V20.5586C29.8157 20.3398 30.1741 20.2305 30.5823 20.2305C30.9905 20.2305 31.3313 20.375 31.6047 20.6641C31.8782 20.9512 32.0149 21.3633 32.0149 21.9004C32.0149 22.4355 31.8733 22.8457 31.5901 23.1309C31.3069 23.416 30.9251 23.5586 30.4446 23.5586C30.1965 23.5586 29.9143 23.5088 29.5979 23.4092V24.3086C29.5979 24.3613 29.5803 24.4043 29.5452 24.4375C29.512 24.4727 29.47 24.4902 29.4192 24.4902H28.7629C28.7122 24.4902 28.6692 24.4727 28.634 24.4375C28.6008 24.4043 28.5842 24.3613 28.5842 24.3086ZM29.5979 22.7324C29.8499 22.8125 30.0618 22.8525 30.2336 22.8525C30.5012 22.8525 30.6907 22.7764 30.802 22.624C30.9153 22.4717 30.9719 22.2285 30.9719 21.8945C30.9719 21.5605 30.9182 21.3184 30.8108 21.168C30.7053 21.0156 30.5461 20.9395 30.3333 20.9395C30.1223 20.9395 29.8772 21.0273 29.5979 21.2031V22.7324ZM33.0123 23.1367C32.7076 22.8555 32.5553 22.4414 32.5553 21.8945C32.5553 21.3457 32.7076 20.9316 33.0123 20.6523C33.317 20.3711 33.7545 20.2305 34.3248 20.2305C34.897 20.2305 35.3355 20.3711 35.6402 20.6523C35.9449 20.9316 36.0972 21.3457 36.0972 21.8945C36.0972 22.4414 35.9449 22.8555 35.6402 23.1367C35.3355 23.418 34.897 23.5586 34.3248 23.5586C33.7545 23.5586 33.317 23.418 33.0123 23.1367ZM33.7535 21.1328C33.6324 21.291 33.5719 21.5439 33.5719 21.8916C33.5719 22.2393 33.6324 22.4932 33.7535 22.6533C33.8746 22.8135 34.065 22.8936 34.3248 22.8936C34.5865 22.8936 34.7779 22.8135 34.899 22.6533C35.022 22.4932 35.0836 22.2393 35.0836 21.8916C35.0836 21.5439 35.022 21.291 34.899 21.1328C34.7779 20.9746 34.5865 20.8955 34.3248 20.8955C34.065 20.8955 33.8746 20.9746 33.7535 21.1328ZM36.8192 23.3213V20.4707C36.8192 20.418 36.8358 20.375 36.869 20.3418C36.9042 20.3066 36.9472 20.2891 36.9979 20.2891H37.6103C37.663 20.2891 37.706 20.3066 37.7392 20.3418C37.7743 20.375 37.7919 20.418 37.7919 20.4707V22.3955L38.8231 20.5C38.8544 20.4395 38.9022 20.3896 38.9667 20.3506C39.0311 20.3096 39.0936 20.2891 39.1542 20.2891H39.9745C40.0272 20.2891 40.0702 20.3066 40.1034 20.3418C40.1386 20.375 40.1561 20.418 40.1561 20.4707V23.3213C40.1561 23.374 40.1386 23.417 40.1034 23.4502C40.0702 23.4834 40.0272 23.5 39.9745 23.5H39.3622C39.3095 23.5 39.2665 23.4834 39.2333 23.4502C39.2001 23.415 39.1835 23.3721 39.1835 23.3213V21.3994L38.1522 23.2891C38.121 23.3457 38.0731 23.3955 38.0087 23.4385C37.9442 23.4795 37.8817 23.5 37.8212 23.5H36.9979C36.9452 23.5 36.9022 23.4834 36.869 23.4502C36.8358 23.417 36.8192 23.374 36.8192 23.3213ZM37.5019 19.1787C37.5019 19.0791 37.5565 19.0293 37.6659 19.0293H37.8856C37.9813 19.0293 38.0497 19.0791 38.0907 19.1787C38.1552 19.3389 38.287 19.4189 38.4862 19.4189C38.6874 19.4189 38.8192 19.3389 38.8817 19.1787C38.9208 19.0791 38.9892 19.0293 39.0868 19.0293H39.3095C39.4169 19.0293 39.4706 19.0791 39.4706 19.1787C39.4706 19.4072 39.3798 19.5947 39.1981 19.7412C39.0165 19.8877 38.7792 19.9609 38.4862 19.9609C38.1952 19.9609 37.9579 19.8877 37.7743 19.7412C37.5927 19.5947 37.5019 19.4072 37.5019 19.1787Z" fill="url(#paint1_linear_60_1289)"/>
<path d="M27.9296 20.3418L27.8569 20.4105L27.8589 20.4125L27.9296 20.3418ZM27.9296 20.9482L28.0004 21.019L28.0023 21.0169L27.9296 20.9482ZM26.8661 20.998V20.898H26.7661V20.998H26.8661ZM25.8994 23.4502L25.8265 23.519L25.8307 23.5229L25.8994 23.4502ZM25.8495 20.998H25.9495V20.898H25.8495V20.998ZM24.7831 20.9482L24.7103 21.017L24.7145 21.0209L24.7831 20.9482ZM24.8333 20.8193V20.4707H24.6333V20.8193H24.8333ZM24.8333 20.4707C24.8333 20.4409 24.8418 20.4246 24.8539 20.4125L24.7124 20.2711C24.6581 20.3254 24.6333 20.395 24.6333 20.4707H24.8333ZM24.8539 20.4125C24.869 20.3973 24.887 20.3891 24.915 20.3891V20.1891C24.8375 20.1891 24.7676 20.216 24.7124 20.2711L24.8539 20.4125ZM24.915 20.3891H27.8007V20.1891H24.915V20.3891ZM27.8007 20.3891C27.8287 20.3891 27.8444 20.3972 27.8569 20.4105L28.0023 20.2731C27.9484 20.216 27.8782 20.1891 27.8007 20.1891V20.3891ZM27.8589 20.4125C27.871 20.4246 27.8794 20.4409 27.8794 20.4707H28.0794C28.0794 20.395 28.0547 20.3254 28.0003 20.2711L27.8589 20.4125ZM27.8794 20.4707V20.8193H28.0794V20.4707H27.8794ZM27.8794 20.8193C27.8794 20.846 27.8717 20.864 27.8569 20.8796L28.0023 21.0169C28.054 20.9622 28.0794 20.8942 28.0794 20.8193H27.8794ZM27.8589 20.8775C27.8468 20.8896 27.8305 20.898 27.8007 20.898V21.098C27.8764 21.098 27.946 21.0733 28.0003 21.019L27.8589 20.8775ZM27.8007 20.898H26.8661V21.098H27.8007V20.898ZM26.7661 20.998V23.3213H26.9661V20.998H26.7661ZM26.7661 23.3213C26.7661 23.3462 26.7587 23.3635 26.7427 23.3795L26.8841 23.5209C26.9385 23.4666 26.9661 23.398 26.9661 23.3213H26.7661ZM26.7427 23.3795C26.7306 23.3916 26.7143 23.4 26.6845 23.4V23.6C26.7602 23.6 26.8298 23.5752 26.8841 23.5209L26.7427 23.3795ZM26.6845 23.4H26.0312V23.6H26.6845V23.4ZM26.0312 23.4C26.0015 23.4 25.9829 23.3915 25.968 23.3775L25.8307 23.5229C25.8862 23.5753 25.9554 23.6 26.0312 23.6V23.4ZM25.9721 23.3815C25.9573 23.3659 25.9495 23.3479 25.9495 23.3213H25.7495C25.7495 23.3962 25.775 23.4641 25.8267 23.5189L25.9721 23.3815ZM25.9495 23.3213V20.998H25.7495V23.3213H25.9495ZM25.8495 20.898H24.915V21.098H25.8495V20.898ZM24.915 20.898C24.8853 20.898 24.8666 20.8896 24.8518 20.8755L24.7145 21.0209C24.77 21.0733 24.8392 21.098 24.915 21.098V20.898ZM24.8558 20.8796C24.8411 20.864 24.8333 20.846 24.8333 20.8193H24.6333C24.6333 20.8942 24.6588 20.9622 24.7104 21.0169L24.8558 20.8796ZM29.4544 20.3418L29.3815 20.4106L29.3857 20.4145L29.4544 20.3418ZM29.5071 20.5586H29.4071V20.7521L29.5649 20.6402L29.5071 20.5586ZM31.6047 20.6641L31.5321 20.7328L31.5323 20.733L31.6047 20.6641ZM29.5979 23.4092L29.6279 23.3138L29.4979 23.2729V23.4092H29.5979ZM29.5452 24.4375L29.4764 24.3647L29.4725 24.3688L29.5452 24.4375ZM29.5979 22.7324H29.4979V22.8056L29.5676 22.8277L29.5979 22.7324ZM30.802 22.624L30.7218 22.5644L30.7213 22.565L30.802 22.624ZM30.8108 21.168L30.7286 21.2249L30.7294 21.2261L30.8108 21.168ZM29.5979 21.2031L29.5446 21.1185L29.4979 21.1479V21.2031H29.5979ZM28.6842 24.3086V20.4707H28.4842V24.3086H28.6842ZM28.6842 20.4707C28.6842 20.4409 28.6927 20.4246 28.7048 20.4125L28.5633 20.2711C28.509 20.3254 28.4842 20.395 28.4842 20.4707H28.6842ZM28.7048 20.4125C28.7207 20.3965 28.7381 20.3891 28.7629 20.3891V20.1891C28.6863 20.1891 28.6177 20.2167 28.5633 20.2711L28.7048 20.4125ZM28.7629 20.3891H29.3284V20.1891H28.7629V20.3891ZM29.3284 20.3891C29.3532 20.3891 29.3684 20.3964 29.3817 20.4105L29.5271 20.2731C29.4739 20.2169 29.4051 20.1891 29.3284 20.1891V20.3891ZM29.3857 20.4145C29.3989 20.427 29.4071 20.4427 29.4071 20.4707H29.6071C29.6071 20.3932 29.5801 20.323 29.523 20.2691L29.3857 20.4145ZM29.4071 20.4707V20.5586H29.6071V20.4707H29.4071ZM29.5649 20.6402C29.8553 20.4344 30.1931 20.3305 30.5823 20.3305V20.1305C30.1551 20.1305 29.7761 20.2453 29.4493 20.477L29.5649 20.6402ZM30.5823 20.3305C30.9638 20.3305 31.2781 20.4643 31.5321 20.7328L31.6774 20.5953C31.3845 20.2857 31.0172 20.1305 30.5823 20.1305V20.3305ZM31.5323 20.733C31.7826 20.9958 31.9149 21.3797 31.9149 21.9004H32.1149C32.1149 21.3469 31.9738 20.9066 31.6772 20.5951L31.5323 20.733ZM31.9149 21.9004C31.9149 22.4182 31.7782 22.7995 31.5191 23.0604L31.661 23.2013C31.9684 22.8919 32.1149 22.4529 32.1149 21.9004H31.9149ZM31.5191 23.0604C31.2583 23.323 30.904 23.4586 30.4446 23.4586V23.6586C30.9461 23.6586 31.3555 23.509 31.661 23.2013L31.5191 23.0604ZM30.4446 23.4586C30.2095 23.4586 29.9377 23.4113 29.6279 23.3138L29.5679 23.5046C29.8909 23.6063 30.1836 23.6586 30.4446 23.6586V23.4586ZM29.4979 23.4092V24.3086H29.6979V23.4092H29.4979ZM29.4979 24.3086C29.4979 24.3366 29.4897 24.3523 29.4765 24.3648L29.6138 24.5102C29.6709 24.4563 29.6979 24.3861 29.6979 24.3086H29.4979ZM29.4725 24.3688C29.4592 24.3829 29.444 24.3902 29.4192 24.3902V24.5902C29.4959 24.5902 29.5647 24.5624 29.6179 24.5062L29.4725 24.3688ZM29.4192 24.3902H28.7629V24.5902H29.4192V24.3902ZM28.7629 24.3902C28.7381 24.3902 28.7207 24.3827 28.7048 24.3668L28.5633 24.5082C28.6177 24.5626 28.6863 24.5902 28.7629 24.5902V24.3902ZM28.7048 24.3668C28.6927 24.3547 28.6842 24.3384 28.6842 24.3086H28.4842C28.4842 24.3843 28.509 24.4539 28.5633 24.5082L28.7048 24.3668ZM29.5676 22.8277C29.8247 22.9094 30.0475 22.9525 30.2337 22.9525V22.7525C30.076 22.7525 29.875 22.7156 29.6282 22.6371L29.5676 22.8277ZM30.2337 22.9525C30.5189 22.9525 30.7455 22.8708 30.8827 22.683L30.7213 22.565C30.6358 22.682 30.4835 22.7525 30.2337 22.7525V22.9525ZM30.8823 22.6837C31.0149 22.5053 31.0719 22.2355 31.0719 21.8945H30.8719C30.8719 22.2215 30.8157 22.4381 30.7218 22.5644L30.8823 22.6837ZM31.0719 21.8945C31.0719 21.5544 31.0181 21.2861 30.8922 21.1098L30.7294 21.2261C30.8183 21.3506 30.8719 21.5667 30.8719 21.8945H31.0719ZM30.893 21.111C30.7659 20.9274 30.5733 20.8395 30.3333 20.8395V21.0395C30.519 21.0395 30.6448 21.1039 30.7286 21.2249L30.893 21.111ZM30.3333 20.8395C30.0956 20.8395 29.8316 20.9379 29.5446 21.1185L29.6512 21.2878C29.9228 21.1168 30.149 21.0395 30.3333 21.0395V20.8395ZM29.4979 21.2031V22.7324H29.6979V21.2031H29.4979ZM33.0123 20.6523L33.0799 20.7261L33.0801 20.7258L33.0123 20.6523ZM35.6402 20.6523L35.5724 20.7258L35.5726 20.7261L35.6402 20.6523ZM34.899 22.6533L34.8197 22.5924L34.8192 22.593L34.899 22.6533ZM34.899 21.1328L34.8196 21.1936L34.8201 21.1942L34.899 21.1328ZM33.0801 23.0632C32.8019 22.8064 32.6553 22.4228 32.6553 21.8945H32.4553C32.4553 22.46 32.6133 22.9045 32.9445 23.2102L33.0801 23.0632ZM32.6553 21.8945C32.6553 21.3641 32.802 20.9808 33.0799 20.7261L32.9447 20.5786C32.6132 20.8825 32.4553 21.3273 32.4553 21.8945H32.6553ZM33.0801 20.7258C33.3604 20.4671 33.7701 20.3305 34.3248 20.3305V20.1305C33.7389 20.1305 33.2736 20.275 32.9445 20.5789L33.0801 20.7258ZM34.3248 20.3305C34.8815 20.3305 35.2922 20.4672 35.5724 20.7258L35.708 20.5789C35.3788 20.275 34.9126 20.1305 34.3248 20.1305V20.3305ZM35.5726 20.7261C35.8505 20.9808 35.9972 21.3641 35.9972 21.8945H36.1972C36.1972 21.3273 36.0393 20.8825 35.7078 20.5786L35.5726 20.7261ZM35.9972 21.8945C35.9972 22.4228 35.8506 22.8064 35.5724 23.0632L35.708 23.2102C36.0392 22.9045 36.1972 22.46 36.1972 21.8945H35.9972ZM35.5724 23.0632C35.2922 23.3219 34.8815 23.4586 34.3248 23.4586V23.6586C34.9126 23.6586 35.3788 23.5141 35.708 23.2102L35.5724 23.0632ZM34.3248 23.4586C33.7701 23.4586 33.3604 23.3219 33.0801 23.0632L32.9445 23.2102C33.2736 23.514 33.7389 23.6586 34.3248 23.6586V23.4586ZM33.6741 21.072C33.5329 21.2565 33.4719 21.5366 33.4719 21.8916H33.6719C33.6719 21.5513 33.7319 21.3255 33.8329 21.1936L33.6741 21.072ZM33.4719 21.8916C33.4719 22.2468 33.5329 22.5274 33.6737 22.7136L33.8333 22.593C33.7319 22.4589 33.6719 22.2318 33.6719 21.8916H33.4719ZM33.6737 22.7136C33.8191 22.9059 34.0438 22.9936 34.3248 22.9936V22.7936C34.0863 22.7936 33.9301 22.7211 33.8333 22.593L33.6737 22.7136ZM34.3248 22.9936C34.6075 22.9936 34.8333 22.906 34.9788 22.7136L34.8192 22.593C34.7225 22.7209 34.5655 22.7936 34.3248 22.7936V22.9936ZM34.9783 22.7142C35.1214 22.5279 35.1836 22.247 35.1836 21.8916H34.9836C34.9836 22.2315 34.9226 22.4584 34.8197 22.5924L34.9783 22.7142ZM35.1836 21.8916C35.1836 21.5364 35.1215 21.256 34.9779 21.0714L34.8201 21.1942C34.9226 21.326 34.9836 21.5515 34.9836 21.8916H35.1836ZM34.9784 21.072C34.8328 20.8818 34.607 20.7955 34.3248 20.7955V20.9955C34.566 20.9955 34.7231 21.0675 34.8196 21.1936L34.9784 21.072ZM34.3248 20.7955C34.0442 20.7955 33.8196 20.8819 33.6741 21.072L33.8329 21.1936C33.9296 21.0673 34.0858 20.9955 34.3248 20.9955V20.7955ZM37.7392 20.3418L37.6663 20.4106L37.6705 20.4145L37.7392 20.3418ZM37.7919 22.3955H37.6919L37.8797 22.4433L37.7919 22.3955ZM38.8231 20.5L38.911 20.5478L38.912 20.5459L38.8231 20.5ZM38.9667 20.3506L39.0185 20.4361L39.0204 20.435L38.9667 20.3506ZM40.1034 20.3418L40.0306 20.4106L40.0348 20.4145L40.1034 20.3418ZM40.1034 23.4502L40.0347 23.3775L40.0327 23.3795L40.1034 23.4502ZM39.2333 23.4502L39.1606 23.5189L39.1626 23.5209L39.2333 23.4502ZM39.1835 21.3994H39.2835L39.0957 21.3515L39.1835 21.3994ZM38.1522 23.2891L38.2398 23.3374L38.24 23.337L38.1522 23.2891ZM38.0087 23.4385L38.0624 23.5229L38.0642 23.5217L38.0087 23.4385ZM38.0907 19.1787L38.1835 19.1414L38.1832 19.1406L38.0907 19.1787ZM38.8817 19.1787L38.7886 19.1422L38.7886 19.1424L38.8817 19.1787ZM37.7743 19.7412L37.7115 19.8191L37.7119 19.8194L37.7743 19.7412ZM36.9192 23.3213V20.4707H36.7192V23.3213H36.9192ZM36.9192 20.4707C36.9192 20.4409 36.9277 20.4246 36.9398 20.4125L36.7983 20.2711C36.744 20.3254 36.7192 20.395 36.7192 20.4707H36.9192ZM36.9398 20.4125C36.9557 20.3965 36.9731 20.3891 36.9979 20.3891V20.1891C36.9213 20.1891 36.8527 20.2167 36.7983 20.2711L36.9398 20.4125ZM36.9979 20.3891H37.6103V20.1891H36.9979V20.3891ZM37.6103 20.3891C37.6382 20.3891 37.654 20.3972 37.6665 20.4105L37.8119 20.2731C37.7579 20.216 37.6877 20.1891 37.6103 20.1891V20.3891ZM37.6705 20.4145C37.6837 20.427 37.6919 20.4427 37.6919 20.4707H37.8919C37.8919 20.3932 37.8649 20.323 37.8078 20.2691L37.6705 20.4145ZM37.6919 20.4707V22.3955H37.8919V20.4707H37.6919ZM37.8797 22.4433L38.911 20.5478L38.7353 20.4522L37.7041 22.3477L37.8797 22.4433ZM38.912 20.5459C38.9339 20.5034 38.9681 20.4667 39.0185 20.4361L38.9149 20.2651C38.8364 20.3126 38.7749 20.3755 38.7343 20.4541L38.912 20.5459ZM39.0204 20.435C39.073 20.4015 39.1171 20.3891 39.1542 20.3891V20.1891C39.0702 20.1891 38.9893 20.2177 38.913 20.2662L39.0204 20.435ZM39.1542 20.3891H39.9745V20.1891H39.1542V20.3891ZM39.9745 20.3891C40.0025 20.3891 40.0182 20.3972 40.0307 20.4105L40.1761 20.2731C40.1222 20.216 40.052 20.1891 39.9745 20.1891V20.3891ZM40.0348 20.4145C40.048 20.427 40.0561 20.4427 40.0561 20.4707H40.2562C40.2562 20.3932 40.2292 20.323 40.1721 20.2691L40.0348 20.4145ZM40.0561 20.4707V23.3213H40.2562V20.4707H40.0561ZM40.0561 23.3213C40.0561 23.3493 40.048 23.365 40.0348 23.3775L40.1721 23.5229C40.2292 23.469 40.2562 23.3988 40.2562 23.3213H40.0561ZM40.0327 23.3795C40.0206 23.3916 40.0043 23.4 39.9745 23.4V23.6C40.0502 23.6 40.1198 23.5752 40.1741 23.5209L40.0327 23.3795ZM39.9745 23.4H39.3622V23.6H39.9745V23.4ZM39.3622 23.4C39.3324 23.4 39.3161 23.3916 39.304 23.3795L39.1626 23.5209C39.2169 23.5752 39.2865 23.6 39.3622 23.6V23.4ZM39.306 23.3815C39.2913 23.3659 39.2835 23.3479 39.2835 23.3213H39.0835C39.0835 23.3962 39.1089 23.4641 39.1606 23.5189L39.306 23.3815ZM39.2835 23.3213V21.3994H39.0835V23.3213H39.2835ZM39.0957 21.3515L38.0645 23.2412L38.24 23.337L39.2713 21.4473L39.0957 21.3515ZM38.0647 23.2408C38.0426 23.2808 38.0069 23.3195 37.9532 23.3553L38.0642 23.5217C38.1393 23.4716 38.1994 23.4106 38.2398 23.3374L38.0647 23.2408ZM37.955 23.3541C37.9024 23.3876 37.8583 23.4 37.8212 23.4V23.6C37.9052 23.6 37.9861 23.5714 38.0624 23.5228L37.955 23.3541ZM37.8212 23.4H36.9979V23.6H37.8212V23.4ZM36.9979 23.4C36.9682 23.4 36.9518 23.3916 36.9398 23.3795L36.7983 23.5209C36.8527 23.5752 36.9223 23.6 36.9979 23.6V23.4ZM36.9398 23.3795C36.9277 23.3674 36.9192 23.3511 36.9192 23.3213H36.7192C36.7192 23.397 36.744 23.4666 36.7983 23.5209L36.9398 23.3795ZM37.6019 19.1787C37.6019 19.1469 37.6102 19.1406 37.6102 19.1406C37.612 19.1389 37.6244 19.1293 37.6659 19.1293V18.9293C37.598 18.9293 37.5284 18.9446 37.4755 18.9927C37.4209 19.0425 37.4019 19.111 37.4019 19.1787H37.6019ZM37.6659 19.1293H37.8856V18.9293H37.6659V19.1293ZM37.8856 19.1293C37.9152 19.1293 37.9349 19.1366 37.9498 19.1475C37.9655 19.1589 37.9829 19.1794 37.9983 19.2168L38.1832 19.1406C38.1575 19.0784 38.1203 19.0242 38.0676 18.9858C38.0141 18.9469 37.9518 18.9293 37.8856 18.9293V19.1293ZM37.998 19.216C38.0372 19.3137 38.0995 19.3918 38.186 19.4444C38.2715 19.4963 38.3736 19.5189 38.4862 19.5189V19.3189C38.3997 19.3189 38.3362 19.3016 38.2899 19.2734C38.2446 19.2459 38.2087 19.2039 38.1835 19.1414L37.998 19.216ZM38.4862 19.5189C38.5997 19.5189 38.7023 19.4964 38.7879 19.4444C38.8747 19.3916 38.9366 19.3131 38.9749 19.2151L38.7886 19.1424C38.7643 19.2044 38.7291 19.2461 38.6841 19.2734C38.6379 19.3015 38.574 19.3189 38.4862 19.3189V19.5189ZM38.9748 19.2152C38.9892 19.1785 39.006 19.1585 39.0212 19.1475C39.0357 19.1369 39.0558 19.1293 39.0868 19.1293V18.9293C39.0202 18.9293 38.9573 18.9466 38.9034 18.9858C38.8502 19.0246 38.8133 19.0793 38.7886 19.1422L38.9748 19.2152ZM39.0868 19.1293H39.3095V18.9293H39.0868V19.1293ZM39.3095 19.1293C39.3496 19.1293 39.361 19.1387 39.3623 19.14C39.363 19.1406 39.3647 19.1423 39.3664 19.1472C39.3684 19.1526 39.3706 19.1625 39.3706 19.1787H39.5706C39.5706 19.1115 39.5521 19.0432 39.4983 18.9933C39.4459 18.9447 39.3768 18.9293 39.3095 18.9293V19.1293ZM39.3706 19.1787C39.3706 19.3763 39.294 19.5354 39.1354 19.6634L39.2609 19.8191C39.4655 19.6541 39.5706 19.4382 39.5706 19.1787H39.3706ZM39.1354 19.6634C38.9757 19.7922 38.7623 19.8609 38.4862 19.8609V20.0609C38.7961 20.0609 39.0573 19.9832 39.2609 19.8191L39.1354 19.6634ZM38.4862 19.8609C38.2123 19.8609 37.9987 19.7923 37.8367 19.663L37.7119 19.8194C37.9172 19.9831 38.1781 20.0609 38.4862 20.0609V19.8609ZM37.8371 19.6634C37.6784 19.5354 37.6019 19.3763 37.6019 19.1787H37.4019C37.4019 19.4382 37.5069 19.6541 37.7115 19.8191L37.8371 19.6634Z" fill="white" mask="url(#path-3-inside-2_60_1289)"/>
<rect x="27.95" y="4.95" width="7.1" height="15.1" fill="url(#paint2_linear_60_1289)" stroke="url(#paint3_linear_60_1289)" stroke-width="0.1"/>
<mask id="path-6-inside-3_60_1289" fill="white">
<path d="M0 10H6V20H0V10Z"/>
</mask>
<path d="M0 10H6V20H0V10Z" fill="url(#paint4_linear_60_1289)"/>
<path d="M0 10V9.9H-0.1V10H0ZM0 20H-0.1V20.1H0V20ZM0 10.1H6V9.9H0V10.1ZM6 19.9H0V20.1H6V19.9ZM0.1 20V10H-0.1V20H0.1Z" fill="url(#paint5_linear_60_1289)" mask="url(#path-6-inside-3_60_1289)"/>
<mask id="path-8-inside-4_60_1289" fill="white">
<path d="M35 10H41V20H35V10Z"/>
</mask>
<path d="M35 10H41V20H35V10Z" fill="url(#paint6_linear_60_1289)"/>
<path d="M41 10H41.1V9.9H41V10ZM41 20V20.1H41.1V20H41ZM35 10.1H41V9.9H35V10.1ZM40.9 10V20H41.1V10H40.9ZM41 19.9H35V20.1H41V19.9Z" fill="url(#paint7_linear_60_1289)" mask="url(#path-8-inside-4_60_1289)"/>
<rect x="5.95" y="4.95" width="7.1" height="15.1" fill="url(#paint8_linear_60_1289)" stroke="url(#paint9_linear_60_1289)" stroke-width="0.1"/>
<rect x="13.05" y="0.05" width="14.9" height="19.9" fill="url(#paint10_linear_60_1289)" stroke="url(#paint11_linear_60_1289)" stroke-width="0.1"/>
<path d="M24 3C24 2.72386 23.7761 2.5 23.5 2.5C23.2239 2.5 23 2.72386 23 3H24ZM23 3V17H24V3H23Z" fill="url(#paint12_linear_60_1289)"/>
<path d="M21 3C21 2.72386 20.7761 2.5 20.5 2.5C20.2239 2.5 20 2.72386 20 3H21ZM20 3V17H21V3H20Z" fill="url(#paint13_linear_60_1289)"/>
<path d="M18 3C18 2.72386 17.7761 2.5 17.5 2.5C17.2239 2.5 17 2.72386 17 3H18ZM17 3V17H18V3H17Z" fill="url(#paint14_linear_60_1289)"/>
<circle cx="9.5" cy="7.5" r="0.5" fill="black" fill-opacity="0.8"/>
<circle cx="9.5" cy="10.5" r="0.5" fill="#492911" fill-opacity="0.8"/>
<circle cx="9.5" cy="13.5" r="0.5" fill="#492911" fill-opacity="0.4"/>
<circle cx="31.5" cy="7.5" r="0.5" fill="black" fill-opacity="0.8"/>
<circle cx="31.5" cy="10.5" r="0.5" fill="#492911" fill-opacity="0.8"/>
<circle cx="31.5" cy="13.5" r="0.5" fill="#492911" fill-opacity="0.4"/>
<defs>
<linearGradient id="paint0_linear_60_1289" x1="13" y1="15" x2="13" y2="28" gradientUnits="userSpaceOnUse">
<stop offset="0.125" stop-color="white"/>
<stop offset="0.427083" stop-color="#CD9B40" stop-opacity="0.5"/>
<stop offset="0.708333" stop-color="#1F0000"/>
</linearGradient>
<linearGradient id="paint1_linear_60_1289" x1="32.6747" y1="17.5" x2="32.6747" y2="25.5" gradientUnits="userSpaceOnUse">
<stop offset="0.09375" stop-color="white"/>
<stop offset="0.442708" stop-color="#CD9B40" stop-opacity="0.5"/>
<stop offset="0.739583" stop-color="#1F0000"/>
</linearGradient>
<linearGradient id="paint2_linear_60_1289" x1="31.5" y1="5" x2="31.5" y2="20" gradientUnits="userSpaceOnUse">
<stop stop-color="#b4985e"/>
<stop offset="1" stop-color="#CD9B40" stop-opacity="0"/>
</linearGradient>
<linearGradient id="paint3_linear_60_1289" x1="31.5" y1="5" x2="31.5" y2="20" gradientUnits="userSpaceOnUse">
<stop stop-color="white"/>
<stop offset="1" stop-color="white" stop-opacity="0"/>
</linearGradient>
<linearGradient id="paint4_linear_60_1289" x1="3" y1="10" x2="3" y2="20" gradientUnits="userSpaceOnUse">
<stop stop-color="#b4985e"/>
<stop offset="1" stop-color="#CD9B40" stop-opacity="0"/>
</linearGradient>
<linearGradient id="paint5_linear_60_1289" x1="3" y1="10" x2="3" y2="20" gradientUnits="userSpaceOnUse">
<stop stop-color="#ABABAB"/>
<stop offset="1" stop-color="#ABABAB" stop-opacity="0"/>
</linearGradient>
<linearGradient id="paint6_linear_60_1289" x1="38" y1="10" x2="38" y2="20" gradientUnits="userSpaceOnUse">
<stop stop-color="#b4985e"/>
<stop offset="1" stop-color="#CD9B40" stop-opacity="0"/>
</linearGradient>
<linearGradient id="paint7_linear_60_1289" x1="38" y1="10" x2="38" y2="20" gradientUnits="userSpaceOnUse">
<stop stop-color="#ABABAB"/>
<stop offset="1" stop-color="#ABABAB" stop-opacity="0"/>
</linearGradient>
<linearGradient id="paint8_linear_60_1289" x1="9.5" y1="5" x2="9.5" y2="20" gradientUnits="userSpaceOnUse">
<stop stop-color="#b4985e"/>
<stop offset="1" stop-color="#CD9B40" stop-opacity="0"/>
</linearGradient>
<linearGradient id="paint9_linear_60_1289" x1="9.5" y1="5" x2="9.5" y2="20" gradientUnits="userSpaceOnUse">
<stop stop-color="white"/>
<stop offset="1" stop-color="white" stop-opacity="0"/>
</linearGradient>
<linearGradient id="paint10_linear_60_1289" x1="20.5" y1="0" x2="20.5" y2="20" gradientUnits="userSpaceOnUse">
<stop stop-color="#CD9B40"/>
<stop offset="1" stop-color="#CD9B40" stop-opacity="0"/>
</linearGradient>
<linearGradient id="paint11_linear_60_1289" x1="20.5" y1="0" x2="20.5" y2="20" gradientUnits="userSpaceOnUse">
<stop stop-color="white"/>
<stop offset="1" stop-color="white" stop-opacity="0"/>
</linearGradient>
<linearGradient id="paint12_linear_60_1289" x1="23.5" y1="2.5" x2="23.5" y2="17" gradientUnits="userSpaceOnUse">
<stop/>
<stop offset="1" stop-color="#500000" stop-opacity="0"/>
</linearGradient>
<linearGradient id="paint13_linear_60_1289" x1="20.5" y1="2.5" x2="20.5" y2="17" gradientUnits="userSpaceOnUse">
<stop/>
<stop offset="1" stop-color="#500000" stop-opacity="0"/>
</linearGradient>
<linearGradient id="paint14_linear_60_1289" x1="17.5" y1="2.5" x2="17.5" y2="17" gradientUnits="userSpaceOnUse">
<stop/>
<stop offset="1" stop-color="#500000" stop-opacity="0"/>
</linearGradient>
</defs>
</svg>
