<svg width="164" height="180" viewBox="0 0 164 180" fill="none" xmlns="http://www.w3.org/2000/svg">
<path d="M161.877 144.163C150.439 159.342 134.489 170.511 116.313 176.067C98.1378 181.624 78.6695 181.284 60.6989 175.097C42.7282 168.909 27.1778 157.191 16.2763 141.622C5.37484 126.053 -0.317998 107.433 0.0137077 88.4293C0.345413 69.426 6.68463 51.0156 18.1228 35.8366C29.561 20.6577 45.5109 9.48942 63.6866 3.93257C81.8622 -1.62429 101.331 -1.28446 119.301 4.90334C137.272 11.0911 152.822 22.8092 163.724 38.3781L156.351 43.5403C146.54 29.5283 132.545 18.982 116.371 13.413C100.197 7.84399 82.676 7.53814 66.3179 12.5393C49.9598 17.5405 35.6049 27.5919 25.3105 41.253C15.0162 54.914 9.31087 71.4834 9.01234 88.5863C8.7138 105.689 13.8374 122.448 23.6487 136.46C33.46 150.472 47.4554 161.018 63.629 166.587C79.8026 172.156 97.324 172.462 113.682 167.461C130.04 162.46 144.395 152.408 154.689 138.747L161.877 144.163Z" fill="url(#paint0_linear_123_41)"/>
<defs>
<linearGradient id="paint0_linear_123_41" x1="180" y1="90" x2="8.14051e-06" y2="89.9996" gradientUnits="userSpaceOnUse">
<stop stop-color="#B4985E" stop-opacity="0.4"/>
<stop offset="0.375" stop-color="#B4985E"/>
<stop offset="1" stop-color="#B4985E"/>
<stop offset="1" stop-color="#B4985E"/>
</linearGradient>
</defs>
</svg>
